<svg id="Layer_1" viewBox="0 0 24 24" xmlns="http://www.w3.org/2000/svg" data-name="Layer 1"><path d="m21 12.424v-1.424c0-4.962-4.037-9-9-9s-9 4.038-9 9v1.424c-1.763.774-3 2.531-3 4.576 0 2.757 2.243 5 5 5 .97 0 2-.701 2-2v-6c0-1.299-1.03-2-2-2v-1c0-3.86 3.141-7 7-7s7 3.14 7 7v1c-.97 0-2 .701-2 2v6c0 1.299 1.03 2 2 2 2.757 0 5-2.243 5-5 0-2.045-1.237-3.802-3-4.576zm-16 7.576c-1.654 0-3-1.346-3-3s1.346-3 3-3zm14 0v-6c1.654 0 3 1.346 3 3s-1.346 3-3 3zm-3-3c0 .477-.334.875-.78.976l-1.339 2.497c-.187.353-.572.558-.966.524-.398-.034-.737-.302-.863-.68l-1.237-3.71-.42.841c-.17.339-.516.553-.895.553h-.5c-.553 0-1-.448-1-1 0-.511.384-.933.878-.993l1.228-2.455c.181-.361.552-.576.966-.55.403.029.749.298.877.681l1.267 3.799.513-.955c.174-.325.513-.527.881-.527h.392c.553 0 1 .448 1 1z"/></svg>